<svg xmlns="http://www.w3.org/2000/svg" xmlns:xlink="http://www.w3.org/1999/xlink" id="mermaid-0" width="100%" aria-roledescription="er" viewBox="0 0 469.84 298.367" style="max-width:469.84px;background-color:#fff"><style>#mermaid-0{fill:#000}#mermaid-0,#mermaid-0 svg{font-family:&quot;trebuchet ms&quot;,verdana,arial,sans-serif;font-size:16px}#mermaid-0 .entityBox{fill:#cde498;stroke:#13540c}#mermaid-0 .attributeBoxOdd{fill:#fff;stroke:#13540c}#mermaid-0 .attributeBoxEven{fill:#f2f2f2;stroke:#13540c}#mermaid-0 .relationshipLabelBox{fill:#e1efc0;opacity:.7;background-color:#e1efc0}#mermaid-0 .relationshipLabelBox rect{opacity:.5}#mermaid-0 .relationshipLine{stroke:#000}#mermaid-0 :root{--mermaid-font-family:&quot;trebuchet ms&quot;,verdana,arial,sans-serif}</style><defs><marker id="ONLY_ONE_START" markerHeight="18" markerWidth="18" orient="auto" refX="0" refY="9"><path fill="none" stroke="gray" d="M9,0 L9,18 M15,0 L15,18"/></marker></defs><defs><marker id="ONLY_ONE_END" markerHeight="18" markerWidth="18" orient="auto" refX="18" refY="9"><path fill="none" stroke="gray" d="M3,0 L3,18 M9,0 L9,18"/></marker></defs><defs><marker id="ZERO_OR_ONE_START" markerHeight="18" markerWidth="30" orient="auto" refX="0" refY="9"><circle cx="21" cy="9" r="6" fill="#fff" stroke="gray"/><path fill="none" stroke="gray" d="M9,0 L9,18"/></marker></defs><defs><marker id="ZERO_OR_ONE_END" markerHeight="18" markerWidth="30" orient="auto" refX="30" refY="9"><circle cx="9" cy="9" r="6" fill="#fff" stroke="gray"/><path fill="none" stroke="gray" d="M21,0 L21,18"/></marker></defs><defs><marker id="ONE_OR_MORE_START" markerHeight="36" markerWidth="45" orient="auto" refX="18" refY="18"><path fill="none" stroke="gray" d="M0,18 Q 18,0 36,18 Q 18,36 0,18 M42,9 L42,27"/></marker></defs><defs><marker id="ONE_OR_MORE_END" markerHeight="36" markerWidth="45" orient="auto" refX="27" refY="18"><path fill="none" stroke="gray" d="M3,9 L3,27 M9,18 Q27,0 45,18 Q27,36 9,18"/></marker></defs><defs><marker id="ZERO_OR_MORE_START" markerHeight="36" markerWidth="57" orient="auto" refX="18" refY="18"><circle cx="48" cy="18" r="6" fill="#fff" stroke="gray"/><path fill="none" stroke="gray" d="M0,18 Q18,0 36,18 Q18,36 0,18"/></marker></defs><defs><marker id="ZERO_OR_MORE_END" markerHeight="36" markerWidth="57" orient="auto" refX="39" refY="18"><circle cx="9" cy="18" r="6" fill="#fff" stroke="gray"/><path fill="none" stroke="gray" d="M21,18 Q39,0 57,18 Q39,36 21,18"/></marker></defs><path style="stroke:gray;fill:none" marker-end="url(#ONLY_ONE_END)" marker-start="url(#ZERO_OR_MORE_START)" d="M81.078125,88.18359375L81.078125,96.51692708333333C81.078125,104.85026041666667,81.078125,121.51692708333333,85.45985592064274,138.18359375C89.84158684128549,154.85026041666666,98.60504868257097,171.51692708333334,102.98677960321373,179.85026041666666L107.36851052385647,188.18359375" class="er relationshipLine"/><path style="stroke:gray;fill:none" marker-end="url(#ONLY_ONE_END)" marker-start="url(#ZERO_OR_MORE_START)" d="M360.5973532218964,77.1376953125L366.64688289324704,87.31201171875C372.69641256459755,97.486328125,384.7954719072988,117.8349609375,390.8450015786494,138.18359375C396.89453125,158.5322265625,396.89453125,178.880859375,396.89453125,189.05517578125L396.89453125,199.2294921875" class="er relationshipLine"/><path style="stroke:gray;fill:none" marker-end="url(#ONLY_ONE_END)" marker-start="url(#ZERO_OR_MORE_START)" d="M316.67231507120255,77.1376953125L303.32979380933546,87.31201171875C289.98727254746836,97.486328125,263.3022300237342,117.8349609375,240.71083329202915,136.34261067708334C218.1194365603241,154.85026041666666,199.6216856206482,171.51692708333334,190.3728101508103,179.85026041666666L181.12393468097233,188.18359375" class="er relationshipLine"/><g id="entity-habits-b6fb3c25-6dc7-4eb1-8504-6dabad3f571b" transform="translate(63.46875,188.18359375 )"><rect width="135.219" height="90.184" x="0" y="0" class="er entityBox"/><text style="dominant-baseline:middle;text-anchor:middle;font-size:12px" id="text-entity-habits-b6fb3c25-6dc7-4eb1-8504-6dabad3f571b" x="0" y="0" class="er entityLabel" transform="translate(67.609375,12)">habits</text><rect width="53.672" height="22.092" x="0" y="24" class="er attributeBoxOdd"/><text style="dominant-baseline:middle;font-size:10.2px" id="text-entity-habits-b6fb3c25-6dc7-4eb1-8504-6dabad3f571b-attr-1-type" x="0" y="0" class="er entityLabel" transform="translate(5,35.0458984375)">String</text><rect width="59.984" height="22.092" x="53.672" y="24" class="er attributeBoxOdd"/><text style="dominant-baseline:middle;font-size:10.2px" id="text-entity-habits-b6fb3c25-6dc7-4eb1-8504-6dabad3f571b-attr-1-name" x="0" y="0" class="er entityLabel" transform="translate(58.671875,35.0458984375)">id</text><rect width="21.563" height="22.092" x="113.656" y="24" class="er attributeBoxOdd"/><text style="dominant-baseline:middle;font-size:10.2px" id="text-entity-habits-b6fb3c25-6dc7-4eb1-8504-6dabad3f571b-attr-1-key" x="0" y="0" class="er entityLabel" transform="translate(118.65625,35.0458984375)">PK</text><rect width="53.672" height="22.092" x="0" y="46.092" class="er attributeBoxEven"/><text style="dominant-baseline:middle;font-size:10.2px" id="text-entity-habits-b6fb3c25-6dc7-4eb1-8504-6dabad3f571b-attr-2-type" x="0" y="0" class="er entityLabel" transform="translate(5,57.1376953125)">String</text><rect width="59.984" height="22.092" x="53.672" y="46.092" class="er attributeBoxEven"/><text style="dominant-baseline:middle;font-size:10.2px" id="text-entity-habits-b6fb3c25-6dc7-4eb1-8504-6dabad3f571b-attr-2-name" x="0" y="0" class="er entityLabel" transform="translate(58.671875,57.1376953125)">title</text><rect width="21.563" height="22.092" x="113.656" y="46.092" class="er attributeBoxEven"/><rect width="53.672" height="22" x="0" y="68.184" class="er attributeBoxOdd"/><text style="dominant-baseline:middle;font-size:10.2px" id="text-entity-habits-b6fb3c25-6dc7-4eb1-8504-6dabad3f571b-attr-3-type" x="0" y="0" class="er entityLabel" transform="translate(5,79.18359375)">DateTime</text><rect width="59.984" height="22" x="53.672" y="68.184" class="er attributeBoxOdd"/><text style="dominant-baseline:middle;font-size:10.2px" id="text-entity-habits-b6fb3c25-6dc7-4eb1-8504-6dabad3f571b-attr-3-name" x="0" y="0" class="er entityLabel" transform="translate(58.671875,79.18359375)">created_at</text><rect width="21.563" height="22" x="113.656" y="68.184" class="er attributeBoxOdd"/></g><g id="entity-habitweekdays-14d95692-4288-4b59-871d-ff5c7136a14c" transform="translate(20,20 )"><rect width="122.156" height="68.184" x="0" y="0" class="er entityBox"/><text style="dominant-baseline:middle;text-anchor:middle;font-size:12px" id="text-entity-habitweekdays-14d95692-4288-4b59-871d-ff5c7136a14c" x="0" y="0" class="er entityLabel" transform="translate(61.078125,12)">habit_week_days</text><rect width="39.453" height="22.092" x="0" y="24" class="er attributeBoxOdd"/><text style="dominant-baseline:middle;font-size:10.2px" id="text-entity-habitweekdays-14d95692-4288-4b59-871d-ff5c7136a14c-attr-1-type" x="0" y="0" class="er entityLabel" transform="translate(5,35.0458984375)">String</text><rect width="58.219" height="22.092" x="39.453" y="24" class="er attributeBoxOdd"/><text style="dominant-baseline:middle;font-size:10.2px" id="text-entity-habitweekdays-14d95692-4288-4b59-871d-ff5c7136a14c-attr-1-name" x="0" y="0" class="er entityLabel" transform="translate(44.453125,35.0458984375)">id</text><rect width="24.484" height="22.092" x="97.672" y="24" class="er attributeBoxOdd"/><text style="dominant-baseline:middle;font-size:10.2px" id="text-entity-habitweekdays-14d95692-4288-4b59-871d-ff5c7136a14c-attr-1-key" x="0" y="0" class="er entityLabel" transform="translate(102.671875,35.0458984375)">PK</text><rect width="39.453" height="22.092" x="0" y="46.092" class="er attributeBoxEven"/><text style="dominant-baseline:middle;font-size:10.2px" id="text-entity-habitweekdays-14d95692-4288-4b59-871d-ff5c7136a14c-attr-2-type" x="0" y="0" class="er entityLabel" transform="translate(5,57.1376953125)">Int</text><rect width="58.219" height="22.092" x="39.453" y="46.092" class="er attributeBoxEven"/><text style="dominant-baseline:middle;font-size:10.2px" id="text-entity-habitweekdays-14d95692-4288-4b59-871d-ff5c7136a14c-attr-2-name" x="0" y="0" class="er entityLabel" transform="translate(44.453125,57.1376953125)">week_day</text><rect width="24.484" height="22.092" x="97.672" y="46.092" class="er attributeBoxEven"/></g><g id="entity-days-6fb94c2b-4a59-4200-9bbc-cd64e8564a1f" transform="translate(343.94921875,199.2294921875 )"><rect width="105.891" height="68.092" x="0" y="0" class="er entityBox"/><text style="dominant-baseline:middle;text-anchor:middle;font-size:12px" id="text-entity-days-6fb94c2b-4a59-4200-9bbc-cd64e8564a1f" x="0" y="0" class="er entityLabel" transform="translate(52.9453125,12)">days</text><rect width="53.672" height="22.092" x="0" y="24" class="er attributeBoxOdd"/><text style="dominant-baseline:middle;font-size:10.2px" id="text-entity-days-6fb94c2b-4a59-4200-9bbc-cd64e8564a1f-attr-1-type" x="0" y="0" class="er entityLabel" transform="translate(5,35.0458984375)">String</text><rect width="30.656" height="22.092" x="53.672" y="24" class="er attributeBoxOdd"/><text style="dominant-baseline:middle;font-size:10.2px" id="text-entity-days-6fb94c2b-4a59-4200-9bbc-cd64e8564a1f-attr-1-name" x="0" y="0" class="er entityLabel" transform="translate(58.671875,35.0458984375)">id</text><rect width="21.563" height="22.092" x="84.328" y="24" class="er attributeBoxOdd"/><text style="dominant-baseline:middle;font-size:10.2px" id="text-entity-days-6fb94c2b-4a59-4200-9bbc-cd64e8564a1f-attr-1-key" x="0" y="0" class="er entityLabel" transform="translate(89.328125,35.0458984375)">PK</text><rect width="53.672" height="22" x="0" y="46.092" class="er attributeBoxEven"/><text style="dominant-baseline:middle;font-size:10.2px" id="text-entity-days-6fb94c2b-4a59-4200-9bbc-cd64e8564a1f-attr-2-type" x="0" y="0" class="er entityLabel" transform="translate(5,57.091796875)">DateTime</text><rect width="30.656" height="22" x="53.672" y="46.092" class="er attributeBoxEven"/><text style="dominant-baseline:middle;font-size:10.2px" id="text-entity-days-6fb94c2b-4a59-4200-9bbc-cd64e8564a1f-attr-2-name" x="0" y="0" class="er entityLabel" transform="translate(58.671875,57.091796875)">date</text><rect width="21.563" height="22" x="84.328" y="46.092" class="er attributeBoxEven"/></g><g id="entity-dayhabits-f4d05089-e547-45c3-b099-a73d760f9655" transform="translate(296.89453125,31.0458984375 )"><rect width="100" height="46.092" x="0" y="0" class="er entityBox"/><text style="dominant-baseline:middle;text-anchor:middle;font-size:12px" id="text-entity-dayhabits-f4d05089-e547-45c3-b099-a73d760f9655" x="0" y="0" class="er entityLabel" transform="translate(50,12)">day_habits</text><rect width="44.302" height="22.092" x="0" y="24" class="er attributeBoxOdd"/><text style="dominant-baseline:middle;font-size:10.2px" id="text-entity-dayhabits-f4d05089-e547-45c3-b099-a73d760f9655-attr-1-type" x="0" y="0" class="er entityLabel" transform="translate(5,35.0458984375)">String</text><rect width="26.365" height="22.092" x="44.302" y="24" class="er attributeBoxOdd"/><text style="dominant-baseline:middle;font-size:10.2px" id="text-entity-dayhabits-f4d05089-e547-45c3-b099-a73d760f9655-attr-1-name" x="0" y="0" class="er entityLabel" transform="translate(49.302083333333336,35.0458984375)">id</text><rect width="29.333" height="22.092" x="70.667" y="24" class="er attributeBoxOdd"/><text style="dominant-baseline:middle;font-size:10.2px" id="text-entity-dayhabits-f4d05089-e547-45c3-b099-a73d760f9655-attr-1-key" x="0" y="0" class="er entityLabel" transform="translate(75.66666666666667,35.0458984375)">PK</text></g><rect width="27.734" height="14" x="72.169" y="133.289" class="er relationshipLabelBox"/><text style="text-anchor:middle;dominant-baseline:middle;font-size:12px" id="rel1" x="86.036" y="140.289" class="er relationshipLabel">habit</text><rect width="18.922" height="14" x="380.381" y="127.976" class="er relationshipLabelBox"/><text style="text-anchor:middle;dominant-baseline:middle;font-size:12px" id="rel2" x="389.842" y="134.976" class="er relationshipLabel">day</text><rect width="27.734" height="14" x="233.564" y="123.878" class="er relationshipLabelBox"/><text style="text-anchor:middle;dominant-baseline:middle;font-size:12px" id="rel3" x="247.431" y="130.878" class="er relationshipLabel">habit</text></svg>